:SAMPLES-PER-SECOND 30
:FULLY-SPECIFIED
:DEGREES
211
root  -76.4141 33.7799 -47.3932 7.03638 69.1324 -5.29352
RightUpLeg  -18.7344 -8.07555 -2.46997
RightLeg  15.4853 0.938142 0.196413
RightFoot  4.87981 0.00947988 0.145798
RightToes  -37.1173 -0.192433 -0.295347
Spine  5.59213 -1.22586 0.119448
Spine1  10.268 -2.07975 -0.785249
HEad  20.8747 -1.19156 8.10271
LeftShoulder1  0 -2.42657e-020 -4.95415e-022
LeftArm  -13.239 10.549 -78.9355
LeftForeArm  54.4395 -73.1116 -35.7949
LeftHand  -0.603093 -7.18622 9.2209
RightShoulder  0 2.42657e-020 1.07489e-018
RightArm  -3.21616 -7.03097 72.7267
RightForeArm  120.204 79.845 95.3855
RightHand  -3.27591 22.5907 -15.9293
LeftUpLeg  -14.7593 2.16413 5.73736
LeftLeg  18.3789 -9.29509 -2.42802
LeftFoot  -5.14358 0.0368742 0.820929
LeftToes  -18.1513 9.37529e-007 1.1992e-007
212
root  -76.3479 33.8159 -47.2766 7.65411 68.4334 -4.823
RightUpLeg  -18.6026 -7.47325 -2.46724
RightLeg  14.9483 1.20372 0.240296
RightFoot  4.90247 0.00827223 0.167111
RightToes  -36.501 -0.191152 -0.294669
Spine  5.51512 -1.21976 0.128605
Spine1  10.0075 -2.07283 -0.750496
HEad  20.3963 -0.0241363 7.47717
LeftShoulder1  0 -2.42657e-020 -4.95415e-022
LeftArm  -12.8191 7.09786 -76.1857
LeftForeArm  56.8151 -73.9059 -37.9956
LeftHand  -0.60403 -7.12161 9.32278
RightShoulder  0 2.42657e-020 1.07489e-018
RightArm  -3.80739 -3.53793 70.0392
RightForeArm  134.248 79.1885 110.808
RightHand  -3.21709 22.5325 -15.6822
LeftUpLeg  -13.9463 2.04922 5.70683
LeftLeg  17.076 -8.61022 -2.04373
LeftFoot  -4.68699 0.0278228 0.679837
LeftToes  -18.1449 9.37529e-007 1.1992e-007
213
root  -76.3025 33.8535 -47.1528 8.06714 67.9866 -4.55666
RightUpLeg  -18.3165 -6.61193 -2.46374
RightLeg  14.2333 0.738535 0.138271
RightFoot  5.15052 0.010977 0.125999
RightToes  -36.3538 -0.190031 -0.293919
Spine  5.58475 -1.16351 0.0528843
Spine1  9.99498 -1.97069 -0.852042
HEad  19.5043 1.1042 7.20062
LeftShoulder1  0 -2.42657e-020 -4.95415e-022
LeftArm  -12.5018 2.10982 -73.0891
LeftForeArm  55.8452 -74.0281 -38.3619
LeftHand  -0.595118 -7.11891 9.18405
RightShoulder  0 2.42657e-020 1.07489e-018
RightArm  -5.64402 1.11601 68.2686
RightForeArm  138.881 78.5268 118.336
RightHand  -2.90325 22.4329 -14.1985
LeftUpLeg  -13.3044 1.54139 5.7718
LeftLeg  15.9588 -7.74655 -1.682
LeftFoot  -4.14662 0.0191338 0.528517
LeftToes  -18.1492 9.37529e-007 1.1992e-007
214
root  -76.2965 33.8862 -47.0369 8.31348 68.1602 -4.48247
RightUpLeg  -18.0432 -6.40461 -2.33927
RightLeg  13.5866 0.338952 0.0600541
RightFoot  5.40641 0.0133304 0.0878172
RightToes  -36.1971 -0.187759 -0.292648
Spine  5.75365 -1.13693 -0.0131489
Spine1  10.1352 -1.94462 -0.909401
HEad  18.245 1.5709 7.31274
LeftShoulder1  0 -2.42657e-020 -4.95415e-022
LeftArm  -12.4057 -4.46594 -70.3905
LeftForeArm  49.1379 -72.7776 -34.9502
LeftHand  -0.543011 -6.63686 8.9838
RightShoulder  0 2.42657e-020 1.07489e-018
RightArm  -7.80126 6.59167 66.8254
RightForeArm  137.246 78.4955 118.618
RightHand  -2.71889 22.0608 -13.516
LeftUpLeg  -13.3053 1.26818 5.91232
LeftLeg  15.6099 -7.53752 -1.58908
LeftFoot  -3.56041 0.0134135 0.431563
LeftToes  -18.6228 9.37529e-007 1.1992e-007
215
root  -76.349 33.912 -46.9486 8.46814 68.9418 -4.64438
RightUpLeg  -18.1931 -6.8421 -2.04033
RightLeg  13.4646 -0.07577 -0.0121473
RightFoot  5.52341 0.0158323 0.0439638
RightToes  -35.8359 -0.184954 -0.290412
Spine  5.99556 -1.1901 -0.000246581
Spine1  10.3722 -2.13031 -0.74293
HEad  16.748 1.70507 7.46389
LeftShoulder1  0 -2.42657e-020 -4.95415e-022
LeftArm  -13.13 -12.0365 -68.7949
LeftForeArm  39.5413 -69.6385 -28.558
LeftHand  -0.444232 -5.9281 8.20313
RightShoulder  0 2.42657e-020 1.07489e-018
RightArm  -9.8261 12.7832 65.5021
RightForeArm  127.702 79.278 109.44
RightHand  -2.79835 21.865 -14.0477
LeftUpLeg  -14.2302 0.992899 6.13779
LeftLeg  16.3166 -7.81507 -1.74779
LeftFoot  -3.21333 0.011147 0.397401
LeftToes  -19.4216 9.37529e-007 1.1992e-007
216
root  -76.4843 33.9305 -46.9062 8.87762 69.8866 -4.96724
RightUpLeg  -19.102 -7.2683 -1.65869
RightLeg  13.7686 -0.613783 -0.10829
RightFoot  5.55746 0.019104 -0.0160528
RightToes  -35.2741 -0.181874 -0.286927
Spine  6.23918 -1.22623 0.0232847
Spine1  10.6069 -2.30797 -0.512498
HEad  15.0197 1.36121 7.87017
LeftShoulder1  0 -2.42657e-020 -4.95415e-022
LeftArm  -14.2989 -20.2153 -68.2091
LeftForeArm  29.7901 -64.4134 -21.7165
LeftHand  -0.347172 -5.05376 7.49485
RightShoulder  0 2.42657e-020 1.07489e-018
RightArm  -12.3964 19.0713 65.3071
RightForeArm  108.104 79.8875 89.3477
RightHand  -2.73057 22.1278 -13.5323
LeftUpLeg  -15.9917 0.561365 6.39125
LeftLeg  17.409 -7.54026 -1.83799
LeftFoot  -2.97172 0.00893232 0.344349
LeftToes  -18.3859 9.37529e-007 1.1992e-007
217
root  -76.7001 33.9409 -46.9008 9.90918 70.8624 -4.90752
RightUpLeg  -20.7948 -7.821 -1.35438
RightLeg  14.7623 -1.04315 -0.203577
RightFoot  5.44605 0.020898 -0.0618295
RightToes  -34.7995 -0.178328 -0.283007
Spine  6.52516 -1.27349 -0.00596462
Spine1  10.8972 -2.51655 -0.377148
HEad  13.3286 0.725128 8.34269
LeftShoulder1  0 -2.42657e-020 -4.95415e-022
LeftArm  -15.8431 -28.3384 -68.5006
LeftForeArm  21.5218 -57.1983 -15.9282
LeftHand  -0.244113 -4.03875 6.55625
RightShoulder  0 2.42657e-020 1.07489e-018
RightArm  -14.5211 25.2912 66.1102
RightForeArm  80.3021 78.6175 62.1936
RightHand  -2.75812 21.8371 -13.8609
LeftUpLeg  -18.2866 0.240163 6.46402
LeftLeg  18.8364 -8.09452 -2.1862
LeftFoot  -2.53205 0.00670479 0.303375
LeftToes  -19.6812 9.37529e-007 1.1992e-007
218
root  -76.9732 33.9319 -46.9077 11.2952 71.5115 -4.84898
RightUpLeg  -23.3822 -8.48629 -0.879431
RightLeg  16.4361 -1.14048 -0.257917
RightFoot  5.19003 0.0229078 -0.110789
RightToes  -34.1575 -0.173391 -0.279798
Spine  6.94344 -1.53178 -0.0853333
Spine1  11.3746 -3.56553 -0.0104039
HEad  11.3544 0.294928 8.78408
LeftShoulder1  0 -2.42657e-020 -4.95415e-022
LeftArm  -18.4283 -35.5193 -68.7513
LeftForeArm  15.3274 -49.891 -12.1008
LeftHand  -0.166834 -3.29126 5.44365
RightShoulder  0 2.42657e-020 1.07489e-018
RightArm  -15.4667 32.1619 68.8386
RightForeArm  56.3275 73.9093 38.0325
RightHand  -3.01186 21.5996 -15.3282
LeftUpLeg  -21.2022 0.161011 6.63409
LeftLeg  20.6363 -7.93176 -2.41138
LeftFoot  -2.20805 0.00401525 0.208345
LeftToes  -19.369 9.37529e-007 1.1992e-007
219
root  -77.2855 33.8651 -46.9188 12.5189 71.7763 -5.31288
RightUpLeg  -26.7375 -8.81985 -0.165347
RightLeg  18.6901 -1.13789 -0.305688
RightFoot  4.71698 0.0255881 -0.17517
RightToes  -33.5515 -0.169126 -0.277807
Spine  7.49995 -1.96221 -0.186546
Spine1  11.9705 -5.24489 0.695136
HEad  9.23106 -0.0718347 9.31656
LeftShoulder1  0 -2.42657e-020 -4.95415e-022
LeftArm  -21.7256 -41.6902 -68.5372
LeftForeArm  12.051 -43.2413 -9.54631
LeftHand  -0.121459 -2.78892 4.62795
RightShoulder  0 2.42657e-020 1.07489e-018
RightArm  -15.45 39.3234 73.6112
RightForeArm  42.7163 66.2945 23.8216
RightHand  -3.00432 21.1606 -15.6178
LeftUpLeg  -24.7766 -0.0328165 7.00776
LeftLeg  23.1891 -7.66716 -2.70883
LeftFoot  -2.30576 0.00283585 0.140907
LeftToes  -20.3 9.37529e-007 1.1992e-007
